<?xml version="1.0" standalone="no"?><!DOCTYPE svg PUBLIC "-//W3C//DTD SVG 1.1//EN" "http://www.w3.org/Graphics/SVG/1.1/DTD/svg11.dtd"><svg t="1545814285891" class="icon" style="" viewBox="0 0 1024 1024" version="1.1" xmlns="http://www.w3.org/2000/svg" p-id="3542" xmlns:xlink="http://www.w3.org/1999/xlink" width="200" height="200"><defs><style type="text/css"></style></defs><path d="M405.892634 842.466916a58.167291 58.167291 0 0 0 57.52809 58.167291h97.158552a58.167291 58.167291 0 0 0 58.167291-58.167291v-122.726591a156.604245 156.604245 0 0 0 53.053683-117.612984A159.161049 159.161049 0 0 0 512 444.244694a157.882647 157.882647 0 0 0-106.107366 275.495631z m0-240.339575a108.024969 108.024969 0 0 1 216.689139 0A106.107366 106.107366 0 0 1 575.9201 687.141074l-10.227216 7.670412v147.65543a6.39201 6.39201 0 0 1-7.031211 7.031211H463.420724a6.39201 6.39201 0 0 1-6.39201-7.031211v-147.65543L448.0799 687.141074a106.746567 106.746567 0 0 1-44.104869-85.013733z" p-id="3543" fill="#eacc20"></path><path d="M959.440699 319.600499h-159.80025v-31.96005A297.867665 297.867665 0 0 0 512 0a293.393258 293.393258 0 0 0-287.640449 288.27965V319.600499H64.559301a63.9201 63.9201 0 0 0-63.9201 63.9201v575.280899a63.9201 63.9201 0 0 0 63.9201 63.9201h894.881398a63.9201 63.9201 0 0 0 63.9201-63.9201V383.520599a63.9201 63.9201 0 0 0-63.9201-63.9201zM288.27965 288.918851A230.751561 230.751561 0 0 1 512 63.9201a232.669164 232.669164 0 0 1 223.72035 223.720349V319.600499h-447.4407zM959.440699 958.801498H64.559301V383.520599h894.881398z" p-id="3544" fill="#eacc20"></path></svg>